<?xml version="1.0" encoding="UTF-8"?>
<svg id="Layer_1" data-name="Layer 1" xmlns="http://www.w3.org/2000/svg" viewBox="0 0 84.4 63.12">
  <rect x="14.83" y=".5" width="54.4" height="32.68" rx="2.72" ry="2.72" style="fill: #fff; stroke: #231f20; stroke-miterlimit: 10;"/>
  <circle cx="24.36" cy="24.87" r="1.7" style="fill: none; stroke: #231f20; stroke-miterlimit: 10; stroke-width: .8px;"/>
  <circle cx="35.74" cy="14.16" r="1.7" style="fill: none; stroke: #231f20; stroke-miterlimit: 10; stroke-width: .8px;"/>
  <circle cx="50.32" cy="18.54" r="1.7" style="fill: none; stroke: #231f20; stroke-miterlimit: 10; stroke-width: .8px;"/>
  <circle cx="60.87" cy="10" r="1.7" style="fill: none; stroke: #231f20; stroke-miterlimit: 10; stroke-width: .8px;"/>
  <line x1="25.55" y1="23.65" x2="34.35" y2="15.15" style="fill: none; stroke: #231f20; stroke-miterlimit: 10; stroke-width: .8px;"/>
  <line x1="37.44" y1="14.8" x2="48.62" y2="18.03" style="fill: none; stroke: #231f20; stroke-miterlimit: 10; stroke-width: .8px;"/>
  <line x1="52.02" y1="17.61" x2="59.74" y2="11.26" style="fill: none; stroke: #231f20; stroke-miterlimit: 10; stroke-width: .8px;"/>
  <line x1="12.42" y1="35.88" x2="71.63" y2="35.88" style="fill: none; stroke: #231f20; stroke-miterlimit: 10; stroke-width: 1.4px;"/>
  <g>
    <path d="m1.57,42.15h1.85v12.6h6.05v1.55H1.57v-14.15Z" style="fill: #231f20;"/>
    <path d="m20.35,51.22c0,3.76-2.75,5.31-5.1,5.31-2.67,0-4.83-1.99-4.83-5.27s2.31-5.33,5.06-5.33,4.87,2.04,4.87,5.29Zm-8.06.04c0,2.04,1.03,3.88,3.09,3.88s3.11-1.85,3.11-3.91c0-1.76-.82-3.95-3.11-3.95s-3.09,2.16-3.09,3.97Z" style="fill: #231f20;"/>
    <path d="m31.35,54.83c0,2.35-.46,3.76-1.45,4.64-.99.9-2.41,1.22-3.7,1.22s-2.56-.29-3.4-.84l.46-1.41c.69.42,1.74.82,3,.82,1.89,0,3.28-1.01,3.28-3.57v-1.13h-.04c-.57.94-1.68,1.7-3.23,1.7-2.54,0-4.33-2.14-4.33-4.96,0-3.44,2.25-5.38,4.58-5.38,1.76,0,2.73.9,3.17,1.74h.04l.08-1.51h1.62c-.04.71-.08,1.53-.08,2.77v5.9Zm-1.83-4.68c0-.31-.02-.59-.1-.84-.34-1.07-1.24-1.95-2.6-1.95-1.74,0-3.02,1.49-3.02,3.84,0,1.99,1.03,3.67,3.02,3.67,1.13,0,2.16-.73,2.56-1.91.1-.31.15-.67.15-.99v-1.83Z" style="fill: #231f20;"/>
    <path d="m34.25,54.07c.82.5,2.02.92,3.28.92,1.87,0,2.96-.99,2.96-2.41,0-1.32-.76-2.08-2.69-2.81-2.29-.8-3.72-2.04-3.72-4.01,0-2.18,1.83-3.82,4.58-3.82,1.43,0,2.5.34,3.13.67l-.5,1.49c-.46-.25-1.41-.67-2.69-.67-1.93,0-2.67,1.15-2.67,2.12,0,1.32.86,1.97,2.81,2.73,2.39.94,3.61,2.08,3.61,4.16,0,2.18-1.62,4.09-4.96,4.09-1.39,0-2.88-.42-3.63-.92l.48-1.53Z" style="fill: #231f20;"/>
    <path d="m45.95,51.55c.04,2.5,1.62,3.53,3.49,3.53,1.32,0,2.14-.23,2.81-.52l.31,1.32c-.63.29-1.76.65-3.38.65-3.13,0-5-2.08-5-5.12s1.81-5.48,4.79-5.48c3.3,0,4.18,2.9,4.18,4.77,0,.38-.04.67-.08.86h-7.12Zm5.42-1.32c.02-1.15-.48-2.98-2.56-2.98-1.87,0-2.69,1.7-2.83,2.98h5.4Z" style="fill: #231f20;"/>
    <path d="m55.44,48.89c0-1.05-.04-1.91-.08-2.73h1.64l.08,1.66h.06c.5-.94,1.68-1.89,3.36-1.89,1.39,0,3.57.84,3.57,4.3v6.07h-1.83v-5.84c0-1.66-.61-3.02-2.35-3.02-1.22,0-2.14.86-2.48,1.89-.08.23-.15.55-.15.86v6.11h-1.83v-7.41Z" style="fill: #231f20;"/>
    <path d="m66.84,54.41c.55.36,1.51.73,2.44.73,1.34,0,1.97-.67,1.97-1.51,0-.88-.52-1.34-1.89-1.85-1.83-.67-2.69-1.68-2.69-2.9,0-1.62,1.32-2.96,3.51-2.96,1.03,0,1.93.27,2.5.61l-.46,1.34c-.4-.23-1.13-.61-2.1-.61-1.07,0-1.68.65-1.68,1.41,0,.84.59,1.22,1.93,1.74,1.74.65,2.67,1.51,2.67,3.04,0,1.78-1.39,3.07-3.8,3.07-1.11,0-2.14-.29-2.86-.71l.46-1.41Z" style="fill: #231f20;"/>
    <path d="m76.44,51.55c.04,2.5,1.62,3.53,3.49,3.53,1.32,0,2.14-.23,2.81-.52l.31,1.32c-.63.29-1.76.65-3.38.65-3.13,0-5-2.08-5-5.12s1.81-5.48,4.79-5.48c3.3,0,4.18,2.9,4.18,4.77,0,.38-.04.67-.08.86h-7.12Zm5.42-1.32c.02-1.15-.48-2.98-2.56-2.98-1.87,0-2.69,1.7-2.83,2.98h5.4Z" style="fill: #231f20;"/>
  </g>
</svg>